<?xml version="1.0" encoding="UTF-8"?>
<svg xmlns="http://www.w3.org/2000/svg" xmlns:xlink="http://www.w3.org/1999/xlink" width="100pt" height="100pt" viewBox="0 0 100 100" version="1.1">
<g id="surface8882685">
<path style=" stroke:none;fill-rule:nonzero;fill:rgb(93.333333%,93.333333%,93.333333%);fill-opacity:1;" d="M 50 3.332031 C 47.050781 3.332031 44.429688 4.636719 42.597656 6.667969 L 33.339844 6.667969 C 30.984375 6.667969 29.363281 9.050781 30.242188 11.238281 L 33.332031 20 L 66.667969 20 L 69.757812 11.238281 C 70.636719 9.050781 69.015625 6.667969 66.660156 6.667969 L 57.402344 6.667969 C 55.570312 4.636719 52.949219 3.332031 50 3.332031 Z M 33.332031 26.667969 C 33.332031 26.667969 10 46.667969 10 70 C 10 83.332031 20 90 26.667969 90 L 73.332031 90 C 80 90 90 83.332031 90 70 C 90 46.667969 66.667969 26.667969 66.667969 26.667969 Z M 53.71875 40 C 56.734375 40 59.035156 40.226562 61.152344 40.742188 L 61.152344 46.21875 C 58.988281 45.699219 57.007812 45.476562 54.6875 45.476562 C 50.542969 45.476562 47.976562 47.226562 47.976562 50.066406 C 47.976562 51.59375 48.378906 52.945312 48.917969 54.296875 L 58.3125 54.296875 L 58.3125 59.09375 L 50.339844 59.09375 C 50.476562 59.546875 50.566406 60.042969 50.566406 60.558594 C 50.703125 63.285156 49.257812 65.855469 46.847656 67.117188 L 46.847656 67.539062 L 62.664062 67.539062 L 62.664062 73.332031 L 37.335938 73.332031 L 37.335938 67.929688 C 41.347656 67.367188 44.09375 64.414062 44.160156 60.632812 C 44.160156 60.089844 44.050781 59.570312 43.917969 59.101562 L 37.433594 59.101562 L 37.433594 54.304688 L 42.480469 54.304688 C 41.695312 52.390625 41.152344 50.722656 41.152344 48.828125 C 41.152344 43.242188 45.765625 40 53.71875 40 Z M 53.71875 40 "/>
</g>
</svg>
