<?xml version="1.0" encoding="UTF-8"?>
<svg xmlns="http://www.w3.org/2000/svg" xmlns:xlink="http://www.w3.org/1999/xlink" width="96pt" height="96pt" viewBox="0 0 96 96" version="1.1">
<g id="surface6253291">
<path style=" stroke:none;fill-rule:nonzero;fill:rgb(100%,100%,100%);fill-opacity:1;" d="M 45 6 L 45 45 L 9 45 L 9 51 L 45 51 L 45 90 L 51 90 L 51 51 L 87 51 L 87 45 L 51 45 L 51 6 Z M 70.5 9 C 64.710938 9 60 13.710938 60 19.5 L 60 21 L 66 21 L 66 19.5 C 66 17.019531 68.019531 15 70.5 15 C 73.148438 15 75 16.851562 75 19.5 C 75 24 65.425781 29.449219 60 33 L 60 39 L 81 39 L 81 33 L 69.597656 33 C 74.84375 29.683594 81 25.5 81 19.5 C 81 13.515625 76.484375 9 70.5 9 Z M 18 57 L 18 63 L 24 63 L 24 78 L 18 78 L 18 84 L 36 84 L 36 78 L 30 78 L 30 57 Z M 18 57 "/>
</g>
</svg>
