<?xml version="1.0" encoding="UTF-8"?>
<svg xmlns="http://www.w3.org/2000/svg" xmlns:xlink="http://www.w3.org/1999/xlink" viewBox="-20 -20 135 135" version="1.1">
<g id="surface5642838">
<path style=" stroke:none;fill-rule:nonzero;fill:rgb(100%,100%,100%);fill-opacity:1;" d="M 36 8 C 29.421875 8 24 13.421875 24 20 C 24 21.40625 24.296875 22.742188 24.75 24 L 8 24 L 8 40 L 12 40 L 12 76 C 12 80.398438 15.601562 84 20 84 L 44 84 L 44 40 L 52 40 L 52 84 L 76 84 C 80.398438 84 84 80.398438 84 76 L 84 40 L 88 40 L 88 24 L 71.25 24 C 71.703125 22.742188 72 21.40625 72 20 C 72 13.421875 66.578125 8 60 8 C 56.925781 8 54.132812 9.214844 52 11.148438 L 52 11.0625 L 48 15.0625 L 44 11.0625 L 44 11.148438 C 41.867188 9.214844 39.074219 8 36 8 Z M 36 16 C 38.257812 16 40 17.742188 40 20 C 40 22.257812 38.257812 24 36 24 C 33.742188 24 32 22.257812 32 20 C 32 17.742188 33.742188 16 36 16 Z M 60 16 C 62.257812 16 64 17.742188 64 20 C 64 22.257812 62.257812 24 60 24 C 57.742188 24 56 22.257812 56 20 C 56 17.742188 57.742188 16 60 16 Z M 60 16 "/>
</g>
</svg>
